<svg transform="scale(1)" id="_0828_Heart_Face" xmlns="http://www.w3.org/2000/svg" viewBox="0 0 500 500" class="show_show__wrapper__graphic__5Waiy "><title>React</title><defs><style>.cls-1{fill:#fff;}.cls-2{fill:#20d1e6;}.cls-3{opacity:.11;}.cls-4{fill:#4c4c4c;}</style></defs><g id="emotion"><g><g><path class="cls-4" d="M156.94,328.42c10.5,46.03,21.45,93.16,47.32,132.66-4.22,2.81-8.44,5.62-12.66,8.44,19.08,2.33,38.37,2.96,57.56,1.9-13.21-35.38-19.87-73.2-19.56-110.96"></path><path class="cls-4" d="M155.49,328.81c4.13,18.1,8.29,36.21,13.41,54.06,5.09,17.73,11.14,35.24,19.04,51.93,4.39,9.26,9.36,18.25,14.96,26.83l.47-.93c-4.22,2.81-8.44,5.62-12.66,8.44-.47,.31-.93,1.01-.01,1.12,19.2,2.33,38.57,2.98,57.88,1.93,.41-.02,2.32-.36,2.03-1.16-10.28-27.62-16.62-56.67-18.76-86.07-.6-8.28-.86-16.59-.8-24.9,0-.79-2.89-.29-2.9,.78-.22,29.47,3.76,58.94,11.8,87.29,2.27,7.99,4.86,15.89,7.76,23.67,.68-.39,1.35-.77,2.03-1.16-19.09,1.04-38.25,.42-57.24-1.88v1.12c4.21-2.81,8.43-5.62,12.65-8.44,.33-.22,.73-.52,.47-.93-10.04-15.37-17.91-32.04-24.3-49.23-6.41-17.25-11.37-34.99-15.78-52.84-2.5-10.11-4.83-20.27-7.14-30.42-.21-.92-3.12-.18-2.9,.78h0Z"></path></g><g><path class="cls-4" d="M345.73,328.42c-10.5,46.03-21.45,93.16-47.32,132.66,4.22,2.81,8.44,5.62,12.66,8.44-19.08,2.33-38.37,2.96-57.56,1.9,13.21-35.38,19.87-73.2,19.56-110.96"></path><path class="cls-4" d="M344.26,328.51c-4.09,17.93-8.21,35.87-13.27,53.56-5.04,17.6-11.03,34.97-18.83,51.55-4.38,9.32-9.34,18.36-14.97,26.98-.28,.43-.38,1.01,.12,1.34,4.22,2.81,8.44,5.62,12.66,8.44l1.22-1.99c-18.96,2.3-38.11,2.96-57.18,1.92l.91,1.3c10.32-27.71,16.7-56.87,18.84-86.36,.6-8.28,.86-16.59,.8-24.9-.01-1.58-2.95-1.19-2.94,.19,.22,29.36-3.71,58.75-11.72,87-2.27,7.99-4.86,15.89-7.76,23.67-.24,.63,.22,1.26,.91,1.3,19.33,1.05,38.72,.44,57.93-1.89,.78-.09,2.39-1.21,1.22-1.99-4.22-2.81-8.44-5.62-12.66-8.44l.12,1.34c10.1-15.46,18.06-32.18,24.49-49.46,6.46-17.33,11.44-35.18,15.88-53.12,2.52-10.18,4.86-20.41,7.2-30.64,.34-1.48-2.64-1.16-2.94,.19h0Z"></path></g></g><g><path class="cls-4" d="M102.46,230.9c-15.74-15.47-23.34-37.69-25.53-59.66-2.19-21.92,.58-44.47,9.23-64.73,10.09-23.65,27.86-43.51,48.6-58.71,13.34-9.77,28.82-18,45.36-17.84,16.53,.16,33.83,11.05,36.54,27.36-2.85-1.49-5.29-3.75-6.99-6.48,.62,3.05,1.25,6.11,1.87,9.16-2.86-.13-5.62-1.71-7.19-4.1,.19,2.84,.38,5.69,.58,8.53-2.31,.26-4.71-1.01-5.8-3.06,.02,2.07,.04,4.13,.05,6.2-3.92,.33-5.88-5.55-9.8-5.92-1.39-.13-2.73,.48-3.98,1.11-28.95,14.65-47.26,43.74-64.11,71.47"></path><path class="cls-4" d="M103.8,230.34c-14.11-13.95-21.56-33.12-24.54-52.46-3.31-21.51-1.64-44.01,5.61-64.57,6.72-19.05,18.49-35.99,32.91-50.03,7.12-6.93,14.87-13.29,23.13-18.8,8.66-5.78,18.16-10.73,28.45-12.77,9.06-1.8,18.3-1.05,26.71,2.87,7.53,3.51,14.22,9.45,17.44,17.23,.78,1.9,1.34,3.87,1.69,5.89,.87-.36,1.74-.71,2.61-1.07-2.8-1.5-5.1-3.69-6.8-6.36-.45-.7-2.98,.04-2.8,.94,.62,3.05,1.25,6.11,1.87,9.16l2.02-1.17c-2.64-.18-4.94-1.73-6.42-3.88-.51-.74-2.86,.04-2.8,.94,.19,2.84,.38,5.69,.58,8.53l1.66-1.15c-1.86,.15-3.67-1.14-4.56-2.69-.51-.89-2.91-.25-2.9,.78,.02,2.07,.04,4.13,.05,6.2,.67-.39,1.35-.78,2.02-1.17-2.71,.13-4.59-3.28-6.56-4.69-3.19-2.27-6.6-.82-9.73,.81-6.82,3.57-13.17,8.01-19,13.03-11.84,10.19-21.51,22.65-30.18,35.56-4.99,7.43-9.68,15.07-14.32,22.72-.67,1.1,2.22,.79,2.69,.01,7.88-12.97,15.88-25.93,25.28-37.87,9.29-11.78,20.07-22.6,33.04-30.29,1.81-1.07,3.65-2.12,5.54-3.03,.95-.46,1.85-.82,2.88-.44,.7,.26,1.31,.72,1.87,1.21,2.23,1.93,4.05,4.69,7.34,4.53,.66-.03,2.03-.29,2.02-1.17-.02-2.07-.04-4.13-.05-6.2-.97,.26-1.93,.52-2.9,.78,1.48,2.58,4.14,3.65,7.04,3.43,.54-.04,1.71-.43,1.66-1.15-.19-2.84-.38-5.69-.58-8.53-.93,.31-1.87,.63-2.8,.94,1.84,2.68,4.77,4.11,7.96,4.33,.53,.04,2.19-.36,2.02-1.17-.62-3.05-1.25-6.11-1.87-9.16-.93,.31-1.87,.63-2.8,.94,1.8,2.81,4.25,5.03,7.18,6.6,.61,.33,2.77-.11,2.61-1.07-3.07-17.76-22.06-28.1-38.91-27.75-21.33,.44-40.52,13.36-56.16,26.79-15.38,13.21-28.5,29.26-37.01,47.74-9.46,20.55-12.68,43.64-10.72,66.1,1.75,20.03,7.82,40.43,20.78,56.15,1.58,1.91,3.26,3.74,5.02,5.48,.69,.68,3.42-.4,2.7-1.11h0Z"></path></g><g><path class="cls-4" d="M383.28,125.23c-4.2-21.56-19.04-39.53-35.46-54.12-6.54-5.81-13.74-11.42-22.29-13.31-8.54-1.89-18.72,.96-22.84,8.68,.27-2.21,.55-4.41,.82-6.62-2.43,1.01-4.85,2.02-7.28,3.03,.6-3.69,2.42-7.17,5.1-9.78-2.8,1.48-5.6,2.96-8.39,4.45,1.53-3.61,3.72-6.94,6.42-9.78-2.82,.65-5.56,1.68-8.11,3.05,4.74-9.41,13.84-16.18,23.82-19.58,9.98-3.4,20.79-3.7,31.26-2.56,15.26,1.67,30.56,6.56,42.3,16.46,11.77,9.93,19.09,24.07,25.31,38.17,5.54,12.56,10.44,25.4,14.69,38.46,9.36,28.8,15.36,60.68,4.45,88.92-4.96,12.84-13.16,24.15-21.71,34.95"></path><path class="cls-4" d="M384.73,124.84c-3.2-16.17-12.34-30.38-23.35-42.38-5.57-6.07-11.63-11.85-18.13-16.91-6.34-4.93-13.89-9.15-22.12-9.24-7.69-.09-15.94,3.06-19.8,10.08l2.82-.06c.27-2.21,.55-4.41,.82-6.62,.13-1.04-1.53-.78-2.06-.56-2.43,1.01-4.85,2.02-7.28,3.03,.69,.19,1.37,.38,2.06,.56,.62-3.55,2.27-6.76,4.83-9.3,1.12-1.11-1.08-1.41-1.79-1.04-2.8,1.48-5.6,2.96-8.39,4.45,.66,.27,1.31,.54,1.97,.8,1.52-3.53,3.6-6.75,6.24-9.55,.94-1-.67-1.35-1.41-1.17-2.96,.7-5.8,1.77-8.49,3.19l1.97,.8c4.26-8.33,11.8-14.44,20.38-17.95,10.33-4.22,21.85-4.55,32.81-3.35,10.05,1.1,20.08,3.6,29.16,8.12,9.14,4.56,16.79,11.18,22.88,19.36,6.07,8.16,10.57,17.34,14.66,26.61,4.64,10.52,8.83,21.23,12.56,32.1,7.06,20.58,12.89,42.21,12.39,64.14-.24,10.73-2.08,21.49-6.06,31.49-3.96,9.91-9.83,18.93-16.21,27.43-1.63,2.18-3.3,4.32-4.99,6.46-1.1,1.39,1.67,1.54,2.37,.65,6.85-8.66,13.49-17.59,18.47-27.49,4.96-9.87,7.92-20.56,8.93-31.55,2.06-22.3-3.08-44.69-9.95-65.77-3.71-11.38-7.92-22.6-12.61-33.62-4.12-9.67-8.51-19.33-14.37-28.09-5.78-8.63-13.09-16.06-22.12-21.27-9.03-5.22-19.18-8.25-29.45-9.82-20.22-3.09-44.27-.75-57.81,16.51-1.44,1.83-2.69,3.78-3.76,5.86-.58,1.13,1.39,1.11,1.97,.8,2.46-1.3,5.03-2.28,7.74-2.92-.47-.39-.94-.78-1.41-1.17-2.77,2.94-5,6.31-6.6,10.02-.49,1.14,1.34,1.14,1.97,.8,2.8-1.48,5.6-2.96,8.39-4.45l-1.79-1.04c-2.81,2.79-4.69,6.34-5.37,10.25-.18,1.04,1.57,.77,2.06,.56,2.43-1.01,4.85-2.02,7.28-3.03l-2.06-.56c-.27,2.21-.55,4.41-.82,6.62-.17,1.36,2.43,.66,2.82-.06,3.18-5.79,9.76-8.53,16.17-8.41,7.83,.15,14.92,4.35,20.92,9.04,6.2,4.84,11.96,10.38,17.29,16.15s10.02,11.76,13.99,18.37c4.43,7.38,7.74,15.42,9.41,23.88,.23,1.15,3.14,.42,2.9-.78h0Z"></path></g><g><circle class="cls-2" cx="251.33" cy="218.71" r="156.77"></circle><path class="cls-2" d="M405.63,218.8c-.02,16.23-2.59,32.43-7.61,47.87-4.81,14.82-11.97,28.88-20.98,41.58-8.92,12.57-19.8,23.82-32.02,33.2-12.32,9.45-26.11,17.06-40.7,22.4-15.15,5.54-31.12,8.67-47.24,9.28-16.23,.61-32.49-1.33-48.12-5.75-14.98-4.25-29.37-10.85-42.36-19.44-12.86-8.51-24.47-18.9-34.28-30.81-9.92-12.04-18-25.53-23.89-39.99-6.03-14.81-9.71-30.5-10.92-46.45-1.25-16.35,.08-32.85,3.97-48.78,3.72-15.24,9.8-29.85,17.93-43.27,8.04-13.27,18.09-25.28,29.68-35.59,11.58-10.3,24.72-18.8,38.82-25.22,14.43-6.57,29.97-10.85,45.73-12.64,16.24-1.85,32.72-1.17,48.74,2.09,15.48,3.15,30.4,8.72,44.19,16.42s25.75,17.07,36.37,28.2c10.69,11.21,19.73,24.06,26.61,37.94,7.03,14.18,11.88,29.41,14.27,45.05,1.21,7.91,1.8,15.9,1.81,23.9,0,2.85,4.97,2.82,4.96-.19-.02-16.63-2.64-33.22-7.78-49.05s-12.3-29.76-21.6-42.83c-9.25-13-20.48-24.63-33.16-34.31-12.73-9.73-26.94-17.57-42-23.05-15.66-5.7-32.11-8.92-48.76-9.56-16.71-.65-33.55,1.34-49.64,5.9-15.48,4.39-30.32,11.16-43.76,20.01-13.34,8.77-25.37,19.52-35.52,31.85-10.17,12.34-18.5,26.17-24.54,40.98-6.21,15.24-10.06,31.39-11.29,47.8-1.26,16.83,.09,33.73,4.08,50.13,3.82,15.71,10.1,30.74,18.48,44.56,8.28,13.66,18.67,26.04,30.62,36.64,11.94,10.59,25.51,19.39,40.06,25.96,14.92,6.74,30.91,11.17,47.18,13.02,16.83,1.92,33.89,1.21,50.49-2.15,15.88-3.22,31.26-8.93,45.42-16.81,13.95-7.77,26.76-17.68,37.78-29.23,10.99-11.52,20.28-24.71,27.37-38.97,7.25-14.57,12.25-30.29,14.71-46.38,1.24-8.1,1.83-16.3,1.84-24.5,0-2.85-4.96-2.82-4.96,.19Z"></path></g><path class="cls-4" d="M235.02,218.56c-3.59,2.57-7.02,5.63-8.01,10.12-.52,2.32-.13,4.89,1.64,6.6,1.74,1.68,4.15,2.57,6.48,3.04,1.22,.25,2.15-1.13,2.03-2.21-.14-1.36-1.05-2.32-2.36-2.59-.46-.09-1.32-.38-1.92-.64-.48-.21-.4-.17-.85-.45-.15-.09-.29-.19-.43-.28l-.21-.15c.12,.12,.12,.12,0,0-.11-.11-.32-.49-.14-.13,.11,.22,.08,.21,0-.02-.14-.4-.02,.07-.04-.17-.01-.16-.02-.31-.02-.47,0-.16,0-.16,0,.02l.03-.23c.03-.17,.05-.34,.08-.51,.08-.4,.15-.68,.24-.92,1.13-2.91,3.48-4.91,5.99-6.7,1.02-.73,1.24-2.15,.56-3.21-.57-.9-1.99-1.89-3.07-1.12h0Z"></path><path class="cls-1" d="M131.13,138.65c-8.69,11.43-15.15,24.44-18.95,38.3-1.09,4-1.96,8.05-2.6,12.14-.22,1.37,2.73,.96,2.93-.26,2.8-17.9,10.05-35,21.02-49.43,1.09-1.44-1.65-1.73-2.4-.75h0Z"></path><path class="cls-1" d="M106.7,200.6c-.25,4.57-.5,9.14-.75,13.71-.03,.59,2.84,.19,2.9-.78,.25-4.57,.5-9.14,.75-13.71,.03-.59-2.84-.19-2.9,.78h0Z"></path><path class="cls-1" d="M394.56,175.56c1.75,8.74,3.1,17.55,4.05,26.41,.91,8.54,1.64,17.19,.85,25.77-.43,4.7-1.36,9.33-2.94,13.78-.38,1.08,2.54,.73,2.91-.32,2.83-7.95,3.46-16.41,3.22-24.79-.26-8.88-1.28-17.76-2.57-26.54-.74-5.05-1.62-10.08-2.62-15.08-.22-1.1-3.13-.38-2.9,.78h0Z"></path><path class="cls-1" d="M393.46,253.29c.04,2.93-.58,5.78-1.86,8.42-.31,.64,.29,1.24,.91,1.31,.72,.08,1.55-.22,1.88-.91,1.35-2.79,2.06-5.9,2.01-9,0-.72-.69-1.09-1.36-1.03-.59,.06-1.59,.47-1.58,1.22h0Z"></path><path class="cls-1" d="M386.68,270.31c-2.16,3.28-3.82,6.87-4.85,10.66-.53,1.95-.84,3.96-1.41,5.9s-1.41,3.62-2.52,5.25c-2.43,3.58-5.31,6.91-7.99,10.32-2.75,3.5-5.49,7-8.24,10.5-.58,.74,2.19,.37,2.63-.2,2.85-3.63,5.7-7.26,8.55-10.89,2.57-3.27,5.29-6.47,7.67-9.88,1.12-1.6,2.05-3.3,2.64-5.17,.6-1.94,.92-3.95,1.42-5.91,1.02-3.95,2.72-7.68,4.96-11.08,.3-.46-1.05-.33-1.17-.31-.56,.09-1.36,.3-1.69,.81h0Z"></path><g class="cls-3"><path class="cls-4" d="M332.18,88.29c-3.44-2.64-7.84-4.02-12.17-3.82,.4,12.91,8.51,24.06,15.32,35.04,21.42,34.52,32.36,76.45,25.37,116.47s-33.36,77.3-70.9,92.82c-14.5,6-30.11,8.71-45.6,11.26-10.26,1.69-21.12,3.59-28.97,10.42-.75,.66-1.51,1.43-1.66,2.42-.17,1.15,.54,2.24,1.29,3.13,5.57,6.71,14.46,9.67,23.07,11.03,31.89,5.05,63.9-7.63,92.23-23.11,9.22-5.04,18.31-10.44,26.35-17.21,26.89-22.63,39.33-58.07,45.89-92.6,3.46-18.23,5.61-37.11,1.75-55.26-2.34-11.04-6.85-21.5-11.9-31.59-12.99-25.95-32.1-51.71-60.11-59.3"></path><g><path class="cls-4" d="M332.38,90.62c-1.1-.39-.81,.14-.99,.16,1.86,.5,.98-.28,.99-.16Z"></path><path class="cls-4" d="M350.27,97.78l-.39-.03c.91,.35,1.74,.83,2.62,1.26-.75-.41-1.46-.87-2.23-1.23Z"></path><path class="cls-4" d="M364.37,109.36c-.18-.44-.56-.95-1.07-1.51-.53-.54-1.21-1.1-1.92-1.7-.71-.59-1.46-1.22-2.19-1.82-.75-.58-1.47-1.14-2.06-1.71l-.32-.47-1.5-.47c3.16,2.34,7.28,5.49,9.06,7.67Z"></path><path class="cls-4" d="M369.77,117.58c-.18-.62,1.54,1.44-1.39-1.77,.12,.18,.15,.24,.22,.35,.26,.29,.62,.69,1.18,1.42Z"></path><path class="cls-4" d="M368.59,116.16c-1.28-1.41,.65,1.08,0,0h0Z"></path><path class="cls-4" d="M374.21,122.98l-1.7-1.88c.18,.52,1.49,2.35,.9,1.75,1.64,1.99,1.46,1.48,.8,.13Z"></path><path class="cls-4" d="M376.06,124.61l-.87-.99c.08,.23,.27,.52,.87,.99Z"></path><path class="cls-4" d="M373.36,121.51l1.83,2.11c-.12-.36,.04-.53-.83-.98,.31,.06-.19-.27-1.01-1.12Z"></path><path class="cls-4" d="M372.49,120.19c-.77-1.2-1.85-2.69-.06-.86-3.13-3.72-3.06-2.83,.06,.86Z"></path><path class="cls-4" d="M365.56,109.51l-1.2-1.52c-.44-.34-.88-.68-1.36-.99,.71,.46,2.47,2.76,2.56,2.51Z"></path><path class="cls-4" d="M382.6,136.33c.21,.06-.08-.94-.01-1.21-.36-.51-.73-1.02-1.12-1.51,.44,.86,1.26,2.5,1.14,2.72Z"></path><path class="cls-4" d="M382.58,135.12l1.65,2.29c-1.25-2.18-1.59-2.52-1.65-2.29Z"></path><path class="cls-4" d="M376.97,124.51l-3.19-3.39c1.22,1.37,2.51,2.71,3.7,4.13l-.51-.73Z"></path><polygon class="cls-4" points="387.78 145.7 386.74 144.45 388.51 146.73 387.78 145.7"></polygon><path class="cls-4" d="M391.04,152.04c-.77-.93,.26,1.67-.44,.62,.88,1.72,1.8,3.1,2.61,4.36-.76-1.39-1.43-2.92-2.16-4.99Z"></path><path class="cls-4" d="M394.5,159.18c-.37-.7-.81-1.39-1.3-2.14,.41,.73,.83,1.45,1.3,2.14Z"></path><path class="cls-4" d="M386.52,141.64c.02,.24,.02,.72,.69,2.15l-.16-1.17c-.16-.3-.34-.63-.53-.98Z"></path><path class="cls-4" d="M387.04,142.57v.04c.59,1.05,.95,1.81,1.11,2.13-.14-.27-.45-.94-1.11-2.17Z"></path><path class="cls-4" d="M386.39,141.39c.05,.09,.08,.16,.13,.25-.01-.11-.03-.18-.13-.25Z"></path><path class="cls-4" d="M380.76,130.88c1.08,1.27,3.16,4.07,1.67,1.04-.88-.85-.04,.88-1.67-1.04Z"></path><path class="cls-4" d="M386.19,139.92c-.45-.9-.91-1.78-1.4-2.66-.07,.11,.06,.65-.45,0,.64,.87,1.26,1.75,1.85,2.65Z"></path><polygon class="cls-4" points="387.02 141.15 386.19 139.92 386.69 140.92 387.02 141.15"></polygon><path class="cls-4" d="M392.78,154.35c.71,1.09,1.31,2.37,1.98,3.82-.61-1.6-1.3-3.23-2.02-4.75-.22-.16-.75-.72,.04,.93Z"></path><path class="cls-4" d="M390.11,148.56c.05,.08,.11,.18,.15,.25-.05-.18-.1-.31-.15-.25Z"></path><path class="cls-4" d="M400.16,172.81c0-.09,0-.17,0-.26-.03-.01-.06-.02-.09-.03l.08,.3Z"></path><path class="cls-4" d="M392.69,153.13c-.47-1.2-.91-1.85-1.35-2.45,.46,.85,.93,1.76,1.4,2.75,.1,.07,.15,.07-.05-.29Z"></path><path class="cls-4" d="M396.35,163.12c-.16-.65-.37-1.38-.61-2.14,.13,.65,.42,1.96,.61,2.14Z"></path><path class="cls-4" d="M390.35,149.25c-.03-.06-.07-.1-.1-.16,.11,.42,.12,.35,.1,.16Z"></path><path class="cls-4" d="M390.35,149.25c.35,.57,.68,.99,.99,1.42-.37-.69-.74-1.32-1.08-1.86,.04,.16,.07,.32,.09,.44Z"></path><path class="cls-4" d="M404.04,176.72c-.44-.14-1.59-3.36-2.09-6.3-1.18-2.68-1.8-.45-1.79,2.13,.18,.04,.37-.02,1.36,2.76-.01-1.05-1.35-6.43-.28-4.14,1.31,3.72,.76,3.14,1.03,5.03,.03-.84,.54,.31,1.03,1.59,.52,1.26,1,2.65,1.28,2.16-.29-1.13-.64-2.24-.98-3.35,.1-.09,.55,1.1,.44,.13Z"></path><path class="cls-4" d="M398.48,167.23l-.46-1.12c.41,1.32,.59,2.3,.85,4.11,.8,1.84,1.03,2.2,1.21,2.3-.54-1.9-1.15-3.78-1.79-5.66l.2,.37Z"></path><path class="cls-4" d="M396.05,161.04c.77,.71,2.01,3.36,1.78,1.53-1.37-3.31-1.27-2.19-2.28-4.08,2.34,5.27-.85-1.43,.53,2.5-.5-1.02-.92-1.94-1.32-2.81,.37,.97,.7,1.91,.98,2.81,0-.05-.02-.09-.03-.13v-.02s0,0,0,0c-.05-.25-.05-.34,.03-.07,.01,.02,.04,.08,.05,.11,.07,.01,.16,.09,.25,.18,.55,1.57,0,.28-.25-.18-.03,0-.06-.04-.09-.04v.02c.81,1.74,1.58,3.49,2.31,5.26-.36-1.16-.9-2.58-1.97-5.06Z"></path><path class="cls-4" d="M384.85,134.08c.06,.18,.03,.18,0,.21,.24,.3,.34,.4,0-.21Z"></path><path class="cls-4" d="M385.84,136.28c-.27-.34-.59-.55-1.25-1.76-.49-1.1,.18-.1,.27-.23-.52-.66-1.74-2.34-.6,0l.26,.32c.53,1.05,1.06,2.29,1.43,3.22,.36,.94,.53,1.59,.41,1.42,.01-.79-.04-1.45-.51-2.98Z"></path><path class="cls-4" d="M391.53,148.64c.78,1.41,1.55,2.84,2.3,4.27l-.73-2.39-.15,.21c-1.13-2.52-1.12-1.86-1.43-2.09Z"></path><path class="cls-4" d="M400.11,173.39l-.62-.47c.47,.81,.9,1.63,1.36,2.46l-.74-1.98Z"></path><path class="cls-4" d="M401.66,179.34l-.44-.14c.2,.51,.36,1.02,.55,1.54l-.11-1.4Z"></path><path class="cls-4" d="M247.36,337.12l1.39-.35c-.66,.15-1.08,.26-1.39,.35Z"></path><path class="cls-4" d="M237.09,338.87l-.22,.24c.46-.2,.64-.31,.22-.24Z"></path><path class="cls-4" d="M359.1,321.06c-1.77,1.09-3.81,2.16-3.34,2.34l.75-.09c1-1.01,1.84-1.7,2.59-2.25Z"></path><path class="cls-4" d="M265.61,367.41c.2,.02,.41,.04,.62,.06,.48-.21,.94-.4,1.34-.58-.59,.16-1.26,.33-1.96,.52Z"></path><path class="cls-4" d="M264.35,369.37c-.94,0-1.87,.05-2.8,.03,.63,.07,1.53,.02,2.8-.03Z"></path><path class="cls-4" d="M300.09,320.54l1.2-1.16c-2.22,1.22-1.13,.88-1.2,1.16Z"></path><path class="cls-4" d="M398.25,242.49c-.56,1.7-.93,3.07-1.23,4.28,.72-2.03,1.46-3.65,1.23-4.28Z"></path><path class="cls-4" d="M244.09,342.33c.85-.22,1.21-.37,1.16-.46-.88,.22-1.36,.39-1.16,.46Z"></path><path class="cls-4" d="M395.77,251.75c.11-.3,.22-.59,.33-.89,.24-1.28,.5-2.56,.92-4.1-.56,1.49-1.11,3.22-1.24,4.99Z"></path><path class="cls-4" d="M344.96,142.92c-.04-.14-.1-.31-.14-.44-.07-.02,0,.17,.14,.44Z"></path><path class="cls-4" d="M322.36,88.77c.1,.48,.28,1.26,.44,2-.03-.21-.08-.48-.16-.85-.07-.3-.16-.67-.28-1.15Z"></path><path class="cls-4" d="M403.39,204.03c.02-1.31-.04-.21,0,0h0Z"></path><path class="cls-4" d="M405.16,197.62c.05,.28,.12,.5,.22,.53-.11-.11-.18-.29-.22-.53Z"></path><path class="cls-4" d="M394.68,265.27s-.02,.07-.04,.11c.2-.35,.16-.29,.04-.11Z"></path><path class="cls-4" d="M403.64,202.05c-.05,.49-.11,1.06-.17,1.68,.04-.27,.11-.78,.17-1.68Z"></path><path class="cls-4" d="M403.43,202.32c.02-.45,.04-.81,.06-1.15-.07-.17-.12-.02-.06,1.15Z"></path><path class="cls-4" d="M403.34,205.86c.02-.75,.07-1.45,.13-2.13-.04,.26-.07,.36-.08,.29-.01,.39-.02,.93-.05,1.83Z"></path><path class="cls-4" d="M356.39,248.69c.03-.08,.07-.17,.11-.26,.17-1.34,.05-.77-.11,.26Z"></path><path class="cls-4" d="M333.24,344.55c.05-.04,.08-.06,.12-.09-.06,.03-.13,.06-.18,.08h.06Z"></path><path class="cls-4" d="M329.14,347.15c1.57-1.45,2.62-1.95,4.05-2.61l-2-.32-2.04,2.93Z"></path><path class="cls-4" d="M271.43,332.16c-1.11,.15-2.22,.29-3.33,.42,3.76-1.55,6.58-2.12,3.45-1.85-.05,.72-3.17,1.56-6.33,2.28-3.15,.74-6.34,1.38-6.44,2.09l-2.23,.13c.63-.1,.71-.2,1.33-.3-4.35,.15-2.96,1.56-8.49,2.32-1.93,.22-3.3,.25-2.02-.13l-4.22,1.04c-1.25,.18-.99-.1,.26-.28-2.18,.39-4.37,.8-6.56,1.27l.04-.05c-.9,.38-2.97,1.16-3.97,1.55-1.71,.2,.8-.34,.34-.4-1.19,.38-2.38,.8-3.55,1.25-1.58,.09,1.34-1.15,3.89-1.65-1.86-.27-2.62,.03-3.83,.51-1.22,.54-2.89,1.16-6.65,2.29,1.1-.54,2.23-1.01,3.36-1.47-1.24,.02-2.52,.36-3.99,.9-1.47,.54-3.11,1.28-5.09,2.21,.25-.09,.88-.35,1.64-.6,.75-.28,1.62-.54,2.35-.7,.72-.18,1.29-.25,1.45-.16,.16,.1-.11,.31-1.02,.85-.55,.21-1.2,.46-1.92,.88-.73,.39-1.54,.93-2.43,1.66-.14-.2-.67,.03-1.43,.55-.38,.25-.83,.57-1.3,.97-.23,.2-.48,.4-.74,.62-.13,.11-.26,.22-.39,.33-.18,.16-.38,.35-.56,.53-.09-.21-.17-.43-.25-.65-.9,.91-1.35,1.71-1.58,2.35-.24,.64-.27,1.14-.27,1.56,.06,.82,.17,1.44,.75,2.61,.21,.57,.49,1.07,.75,1.5,.14,.22,.27,.41,.41,.62,.1,.14,.19,.28,.28,.41,.33,.47,.57,.85,.74,1.18,.35,.66,.49,1.08,.64,1.53,2.09,1.96,1.49,1.11,.99,.41-.25-.35-.44-.72-.28-.7,.16,.02,.69,.41,1.97,1.41,1.73,1.5,3.41,2.52,5.26,3.35,1.85,.83,3.87,1.5,6.42,2.12,2.87,1.09-.63,.23,.37,.72,.93,.09,1.85,.18,2.76,.23,.64,.17,.4,.27,.27,.32,2.27,.3,.33-.53,3.83-.02,.27-.13,.83-.06,1.6,.12,.77,.15,1.75,.4,2.85,.66,1.09,.25,2.29,.55,3.5,.7,1.21,.11,2.43,.14,3.52,0,1.06,.24-.54,.36-.22,.63,3.01-.04,4.29-.24,5.44-.34,.57-.06,1.11-.13,1.81-.22,.7-.09,1.56-.22,2.77-.49l4.18,.16c-1.55-.14-1.35-.42-.36-.74,1-.3,2.77-.83,4.42-1.24-1.09-.1-2.02-.2-2.64-.22,1.76-.34,3.53-.61,5.28-1,.65,0,.16,.31-.68,.71,.36-.1,.69-.22,.95-.31,1.93-.09,1.01,.44-.3,1.03-.67,0-1.34-.09-1.99-.14-1.27,.54-2.48,1.12-2.16,1.46,.34-.11,1.01-.26,1.76-.38-.34,.15-.55,.27-.38,.31,.19,.05,.74-.16,1.6-.43,.44,.18,.89,.39,1.33,.54l.26-.33,3.56-.38,1.79-.19,1.77-.27c1.22-.45,2.38-.91,3.56-1.38,1.18-.47,2.36-1.04,3.64-1.57,2.56-1.05,5.43-2.3,9.19-3.68-1.71,1.15-.14,.95-.04,1.57-2.3,.03-5.87,2.21-9.99,3.1,2.13-.5,1.75-.09,1.23,.16,2.38-.8,4.7-1.76,7.02-2.68,0,.54,1.64-.09,3.55-.56-.86-.23,.4-.85,2.22-1.57,1.83-.7,4.15-1.66,5.51-2.33,.3,.24-.25,.83-3.74,2.09,4.09-.79,4.51-2.97,8.42-3.95-.83,.36-1.3,.5-1.56,.8,.91-.55,2.58-1.27,3.89-1.76,1.3-.52,2.25-.81,1.76-.43l-.82,.38c1.38-.59,3.1-1.36,4.93-2.2,1.8-.88,3.7-1.83,5.44-2.74,3.44-1.89,6.25-3.6,6.43-4.2,.1,.07-.21,1.28-.45,1.6,2.7-2.53,5.38-5.02,7.98-7.6-.46,1.1,3.55,.84-.59,3.63,1.3-.6,2.9-1.36,5.38-3.1-.9,.41-2.63,.3-1.51-.42,3.56-1.15,2.41-.88,6.62-2.67-1.33,.64-.54-1.18,1.4-2.4-.21,.34,.78,.84,.13,1.4,1.42-1.35,2.8-2.74,4.15-4.15-1.06,.99,.34,.93,1.58,.44-.31,.09,.71-.64,1.95-1.53,1.23-.9,2.66-1.99,3.23-2.52l-2.1,1.32c2.65-1.93,3.61-3.32,4.52-4.71,.46-.69,.91-1.38,1.55-2.16,.32-.39,.68-.8,1.12-1.25,.43-.45,.89-.99,1.45-1.55-.37,.72-.35,2.41,2.06,.14,.69-1.48,2.61-6.68,5.61-11.36l.91-.65c.76-1.22,1.57-2.4,2.23-3.68-.34,1.39-1.41,3.76-2.55,6.38-.55,1.32-1.29,2.57-1.94,3.79-.67,1.21-1.3,2.34-1.87,3.25,1.8-1.68,.74-.26,3.12-3.07,1.09-.79-.96,1.83-1.65,2.67,1.92-2.14,3.89-4.24,5.63-6.53-.38-.05,.48-1.46,1.35-2.86,.83-1.43,1.61-2.89,1.3-2.91-1.47,2.73-3.27,5.26-4.94,7.9-.38-.06,.07-1.43,1.06-3.36,.49-.97,1.15-2.05,1.85-3.24,.68-1.2,1.46-2.45,2.32-3.68,1.08-1.12,.36,1.6,.61,1.63,.12-.4,.86-1.63,1.55-2.85,.67-1.23,1.37-2.42,1.59-2.61l-1.02,2.38c1.96-2.77,2.12-5.12,4.54-8.39,.35-.6,1.03-1.42,1.6-2.14,.54-.73,.96-1.37,.84-1.56-1.67,1.72-4.01,.98-3.84-.59,.24-.4,3.81-6.11,4.7-7.45,1.45-1.85-.04,3.71,1.2,2.15-.13-.15,.16-1.4,.3-1.91,.72-1.27,.28,.78,1.46-2.16-.36-.72,2.39-5.97,.04-1.6,.92-2.96,1.34-3,2.57-6.42-.79,.93-.34-3.57,.46-6.53,.11,.23,.53-.36,.73-.65,.96-3,1.8-5.27,2.48-7.54,.72-2.26,1.43-4.46,2.12-7.32,.29-.48,1.17-3.19,1.17-1.95,.1-.85,.04-1.66,.42-3.43,1.34-3.3-.79,3.97,.48,1.52-.35-.32,.53-4.7,.78-7.29-.72,.66-1.38,5.8-1.72,8.39-.4-.09-.58-1.29-.53-3.21,.05-1.92,.32-4.57,.71-7.61,.75-4.8,.95-1.96,1-2.81,.91-4.48,.87-6.46,.83-8.23-.03-1.77-.03-3.34,.76-7.03,.91-2.9,1.08,0,1.55-.61-.29,3.96-1.18,5.98-1.58,8.63l.77-3.23c-.02,1.27-.29,3.91-.7,5.31,.46-1.2,1.12-5.01,1.73-9.41,.61-4.4,1.07-9.38,1.48-12.9-.13-1.27-.23-3.44-.49-2.42v2.23c-.54,2.02-.44-4.21-.76-1.41-.17-2.99-.61-6.31-.54-10.47l.58-.81c-.18,.1-.22,2.74-.04,3.92-.24-1.72,.56-6.47-.42-8.31l-.19,2.95c-.5-2.95-1.55-6.48-1.99-10.1-.31,1.73,.21,.83-.1,3.48,.13-.58,.29-.3,.44,.4,.14,.7,.26,1.82,.38,2.89,.2,2.15,.34,4.15,.66,2.31-.61,2.72-.07,4.64-.72,8.13,.18-.11,.41-1.24,.27,1.84,.06,.14,.13,.47,.17,.68,0,.09-.01,.13-.02,.21,0-.06,.02-.11,.03-.17,.03,.13,.03,.15,0-.06,.1-.73,.21-1.32,.33-1.57,.47,1.53,.3,6.46,.39,8.14-.21,1.83-.18-.78-.46,.2,.07,.84,.13,1.67,.17,2.51-.47,.21-1.17,4.79-1.05,.46-.11,1.29-.26,2.58-.41,3.87-.49,2.25-1.02,5.36-1.12,7.31-.37,1.8-.24,4.68-.33,3.03-.24,2.03-.49,4.07-.78,6.1l-.12,.04c-1.19,5.93-1.67,12.43-4.2,18.94-.36,2.01-.82,4.07-1.85,7.32l-.55,.53c-.63,2.54-2.65,7.37-2.68,8.54-.97,1.15-1.99,4.13-3.2,7.27-1.11,3.18-2.46,6.5-3.43,8.57l.39,.37c-.67,1.42-1.33,2.81-1.98,4.31-.63,1.51-1.37,3.07-2.22,4.83h.51c-.32,.79-.75,1.65-1.26,2.57-.51,.93-1.18,1.86-1.84,2.87-.67,1-1.38,2.05-2.11,3.13-.77,1.04-1.54,2.12-2.28,3.23,.06-.4,.85-1.49,1.47-2.22-1.1,1.18-2.08,2.47-2.99,3.84-.98,1.31-1.9,2.68-2.8,4.05-.87,1.4-1.88,2.65-2.86,3.88-1,1.21-1.97,2.38-3.14,3.25-.88,1.14-1.65,1.84-2.42,2.48,.09-.1,.17-.19,.23-.27-.1,.1-.26,.26-.41,.42-.5,.4-1,.81-1.58,1.21,.53-.31,.99-.65,1.36-.99-.19,.2-.4,.43-.63,.67-.24,.23-.51,.48-.78,.75-.55,.53-1.13,1.11-1.7,1.71l-.84,.11c-.1,.09-.17,.17-.27,.26-1.3,.94-.81,1.04,.06,.74-.56,.61-1.06,1.2-1.45,1.65-1.48,.25-3.22,2.91-5.17,3.3-.32,.5-1.96,1.77-3.58,3.03-1.63,1.25-3.23,2.51-3.38,3.1-.11-.06-.55,.15,.21-.33-1.62,.91-3.25,1.79-4.56,2.85l-.99-.13-3.1,2.74c-2.33,.89-3.33,1.19-1.43-.41-4.81,3.51-4.07,2.54-8.16,5.56l.03-.47c-1.58,.85-3.91,2.62-5.02,2.83-1.97,.57-6.43,2.74-11.69,5.07-5.27,2.28-11.35,4.69-16.33,5.97,1.12,.22-.04,.51-1.51,.82-1.48,.29-3.24,.63-3.3,1.12-.65-.09-2.06,.18-.54-.53-4.94,1.73-7.64,1.67-10.99,3.15-.64-.14,1-.63,.45-.68-.39,.15-1.56,.59-2.12,.54-.55-.05,.7-.39,1.47-.68-2.57,.63-3.98,1-4.76,1.48-.78,.46-.94,.9-1.07,1.33-.68,.02-1.28,.06-1.81,.1-.54,.02-1.02,.07-1.48,.14-.91,.14-1.71,.38-2.66,.75-.97-.15-2.55-.24,.73-.72-1.85,.39-11.35,.38-11.53,.92-.58-.17-2.6,0-3.1,.01-4.17-.31-4.54-.25-8.62-.75l1.12,.24c-1.7,.53-3.44-.16-6.69-.72l.11-.06c-3.65-1.04-4.39-1.31-5.19-1.45-.75-.22-1.61-.28-4.83-2.05l.17,.61c-.51,.32-2.01-.47-3.67-1.76-1.69-1.27-3.46-3.02-5.04-4.4l.9,1.26c-.35-.24-.69-.59-1.02-.99-.33-.41-.61-.9-.9-1.4-.15-.27-.21-.46-.26-.66-.05-.2-.08-.39-.08-.58-.01-.37,.1-.71,.29-.96,.3-.39,.68-.53,.88-.68,.21-.07-.13,.3-.15,.54,.2-.2,.37-.28,.48-.36,.01,0,.19-.14,.31-.23,.12-.09,.21-.17,.28-.24,.29-.28,.27-.39,.19-.49-.08-.1-.21-.19-.11-.43,.09-.25,.43-.64,1.32-1.31,.43-.1,.33,.23,.44,.38,.1,.14,.4,.1,1.66-.63,.69-.26,2.38-1.55,4.62-2.69,2.22-1.17,4.96-2.17,7.08-2.36-.96-.02-1.93-.04,.1-.77,3.18-.92,8.93-.82,11.79-2.11,.43,0,.6,.04,.63,.1,2.5-.62,8.19-1.73,9.63-2.46,1.32,.61,5.23-.31,8.82-1.29,3.59-.97,6.84-2.01,6.99-1.26,2.57-.68,5.14-1.36,7.69-2.16l-.16,.21c4.93-1.38,6.52-2.38,8.07-3.34,1.14-.31,.39,.12,.32,.23,1.78-.58,3.15-1.07,4.28-1.53,1.12-.49,2.03-.9,2.88-1.33,1.69-.89,3.27-1.69,5.8-3.6l.81,.12c.34-.27,1.12-.68,2.21-1.22,.54-.28,1.17-.55,1.83-.91,.65-.37,1.35-.78,2.09-1.21,1.47-.87,3.12-1.8,4.71-2.88,1.55-1.14,3.09-2.34,4.47-3.56-.02,.09-.09,.25-.51,.66,1.61-1.31,3.31-2.82,5.1-4.25,.9-.71,1.81-1.43,2.7-2.13,.85-.75,1.69-1.5,2.49-2.21,3.29-2.81,5.69-5.59,6.04-7.3,.55-.73,1.11-1.44,1.64-2.17l1.52-2.26c-4.47,5.39,.04-1.31-1.98,.75,1.62-2.2,4.84-5.2,2.81-2.51l-.4,.36c-.03,.77,1.42-.86,2.86-2.67,1.37-1.86,2.78-3.86,2.99-3.6l1.49-2.12,1.36-2.19c.92-1.46,1.83-2.91,2.74-4.35,.83-1.49,1.66-2.98,2.49-4.46l1.24-2.21,1.12-2.27c.74-1.51,1.48-3.02,2.21-4.52,.68-1.53,1.3-3.07,1.94-4.6,1.36-3.03,2.31-6.18,3.37-9.26l-1.17,1.2,.73-2.14c.23-.72,.41-1.45,.62-2.17,.47-1.1,.97-1.39,.1,1.73,.84-1.53,1.07-5.33,.94-5.45,.49-1.5,.72-2.1,.82-2.18,.1-.07,.14,.39,.06,.97-.13,1.17-.44,2.87-.17,1.93,.2-.86,.44-1.71,.62-2.57-.06,.19-.14,.38-.22,.56,.18-2.16-.12-2.42,.7-6.21,.63-2.38,.72-1.15,.9-2.1,.05,.01,.12-.31,.24-1.47l.89-5.65-.9,2.18c.14-2.53,.63-5.31-.24-2.77,.64-1.85,1.38-7.13,1.46-12.25,.16-2.56,.05-5.07,.03-7.09-.02-2.02-.02-3.55,0-4.14-.32-1.75-.53-3.49-.69-5.33-.06-.92-.16-1.87-.28-2.84-.1-.98-.21-2-.32-3.07,0,1.08-.58,1.78-.9-1.9,1.56,1.17-.38-6.8,0-9.93-.08,2.75-2.31-10.34-2.32-6.01-.63-3.03,.45-.3,.18-2.65-2.17-7.06-4.04-15.81-7.6-24.27-.21-.07,.09,1.45-.87-.27l-.48-2.41-.56-2.38c-.81-1.62-1.6-1.11-2.37-4.37,.05,.49,.13,1.21-.41,.13-3.36-8.28-8.02-16.22-12.96-23.89-2.47-3.82-4.91-7.63-6.97-11.59-2.03-3.96-3.67-8.11-4.34-12.32,.29,2.31-.18,.85-.62-.87,.18,1.14-.44,.08-.61,.35l-.21-1.81c-.05-.49-.01-.81-.02-1.18,0-.35,.03-.68,.07-.97l.06-.43c.02-.06,0-.16,.06-.18l.28,.04c0-.38,1.27-.36,2.38-.09,1.67,.37,3.29,1.12,3.73,1-.68-.3-1.38-.54-2.09-.74,1.51,.17,.74-.62-.52-1.45-.61-.41-1.39-.81-2.1-1.16-.7-.34-1.28-.62-1.21-.85-.54,.06-1.09,.1-1.7,.11-.59,.04-1.32-.02-1.97,.05,.01,1.34-.16,2.76-.02,4.52,.02,.44,.04,.89,.07,1.35,.04,.49,.09,.78,.14,1.15,.1,.71,.19,1.44,.4,2.15,.35,1.44,.92,2.85,1.71,4.16,.29,1.31-.69-.95-.64-.21,.93,1.29,1.62,2.98,2.96,6.08l-.26-.3c2.14,4.24,3.84,7.13,5.56,10.17,1.71,3.04,3.61,6.12,6.09,10.64l.02-.9c1.08,1.94,1.19,2.42,1.62,3.37,1.92,1.83-3.15-5.39-1.28-3.8,.32,1.53,2.4,4.85,4.13,8.24,1.84,3.32,3.38,6.67,3.33,7.8,1.5,3.06,.05-1.14,1.55,1.93,.04,.31,.09,.62,.12,.94l.7,.63c.85,2.08,.96,3.26,.77,3.44-.19-.51-.69-1.38-.94-1.9,.42,1.4,1.28,3.24,2.05,4.88,.71,1.65,1.37,3.08,1.5,3.56l-1.03-3.11c.91,2.14,1.86,4.4,2.75,6.75,.82,2.37,1.7,4.8,2.49,7.23,.75,2.45,1.5,4.89,2.22,7.26,.65,2.39,1.34,4.68,2.02,6.84,.03-.24,.04-.48,.06-.72,.93,3.32,1.12,4.69,1.34,6.14,.24,1.44,.34,2.99,1.03,6.71l-.1-.26c.23,.73,.45,1.59,.65,2.52,.17,.94,.29,1.95,.4,2.98-.47-1.86-.11,3.62-.67,1.17,.32,1.84,.52,2.98,.66,3.74,.11,.76,.19,1.14,.28,1.44,.17,.59,.37,.87,.94,3.31l-.3,1.15c.46,1.66,.59,1.8,.74,5.59-.36-3.1-.54,2.41-1-1.05-.2,1.98-.16,3.69-.22,5.22-.04,1.52,0,2.86,.03,4.06,.11,2.4,0,4.28-.75,6.02,.35,1.85,.64,.17,.86-1.74,.26-1.9,.22-4.02,.3-2.99,.2-.84,.36-.08,.45,1.2,.02,1.28-.06,3.09-.23,4.33-.14,1.26-.52,2.31-1.05,3.81-.55,1.5-1.15,3.46-1.6,6.59,.1-.62,.03-.68,.12-1.3-.27,1.16-.43,2.3-.61,3.52-.18,1.21-.4,2.49-.89,3.87,.07,.43,.05,.88,0,1.32-.07,.43-.19,.85-.28,1.24-.2,.77-.33,1.41-.01,1.74l.67-2.84,.5-2.87c-.12,.82-.18,1.64-.25,2.48-.06,.85-.2,1.71-.34,2.64-.15,.93-.33,1.92-.59,3.01-.27,1.08-.57,2.27-1.14,3.52,0-.23,.06-.74,.17-1.33,.07-.6,.17-1.29,.26-1.84-.6,1.48-.71,2.99-1.47,4.48-.15-.17-.1-.68,.08-1.4,.18-.72,.48-1.65,.73-2.7,.53-2.08,1.21-4.52,1.35-6.29-.75,1.56-1.17,6.58-1.53,4.65,.47,2.79-1.94,5.9-2.5,10.23l-.35-.43c-.17,.66-.49,2.04-.96,3.19l.26-2.31c-.8,3.4-2.82,6.04-4.02,9.11,1.47-3.14,1.74-3.44,1.86-3.27,.13,.18,.12,.84,.82-.46-.3,1.04-.67,1.85-.97,2.52-.31,.68-.58,1.21-.83,1.66-.51,.89-.93,1.41-1.38,1.94-.86,1.1-1.95,2.2-4.12,6.46,.55-1.17,2.56-4.14,1.79-2.26-.98,1.55-2.2,3.62-3.05,4.42-3.24,5.44,.93-.58-.24,1.87-.82,.77-1.17,1.46-1.49,2.28-.34,.8-.56,1.77-1.32,2.96l-.41-.25c-2.21,2.88-2.28,3.41-2.31,3.88-.01,.23-.02,.44-.27,.92-.13,.24-.31,.55-.61,.94-.31,.39-.72,.87-1.27,1.48,.38-.87,.83-1.69,1.16-2.59-.59,.97-1.3,1.86-1.95,2.79v-.89c-1.99,3.12-2.71,4.04-5.29,6.59,.82-.4,.34,.93-1.81,3.34-1.71,1.4,.57-1.16-2.63,2.09,.51-.95,1.1-1.93,2.72-3.12,.02-.26,.46-.96,.48-1.22-1.75,1.58-4.15,4.18-5.31,5.34,.46-.43,1.02-.94,1.35-1.16-1.42,1.67-2.78,3.43-4.35,4.99-.91,.54-.38-.11,.14-.74-.98,.91-1.53,1.67-2.99,2.98,.13-.63-.21-.87,1.76-2.8l-2.22,2.19-1.11,1.1-1.18,1.02c-.44,.12-2.84,1.54-2.28,.94-.72,.47-1.48,1.06-2.27,1.72-.78,.68-1.68,1.29-2.56,1.99-1.81,1.35-3.68,2.9-5.81,3.8-.17,.18-.55,.47-1.38,.99-.95,.5-1.89,.96-2.83,1.42-.95,.43-1.93,.79-2.91,1.21-1.97,.81-3.94,1.82-6.24,2.97-.98,.14-1.98,.24-2.96,.35-3.73,1.48,4.02-.46-2.22,1.98-4.46,1.67-1.87-.03-3.51,.29-2.14,1.02-5.93,2.84-10.35,3.27,1.38-.46,2.51-.62,3.81-1.01Zm-49.54,11.49c.88-.55,2.69-1.61,3.49-1.59-.9,.92-1.82,1-3.49,1.59Zm51.26,23.53c-.69,.28-1.83,.39-3.12,.43,.91-.2,1.95-.35,3.12-.43Zm129.42-148.71s0,.07,0,.11c-.46,2.12-.29,1.37,0-.11Zm.72-4.43c-.02-.45-.09-.43-.18-.25,.09,.32-.01,1.33-.17,2.46,.16-.3,.31-.87,.35-2.21Zm-40.56,21.37l-.25,.86c.16-2.02,.2-1.44,.25-.86Z"></path><path class="cls-4" d="M264.53,369.14c-.29-.05-.38-.13-.45-.21-.38,.13-.38,.22,.45,.21Z"></path><path class="cls-4" d="M299.87,320.75l.13-.07c.06-.06,.08-.11,.09-.15l-.22,.22Z"></path><path class="cls-4" d="M390.06,282.97c-.44,.84-.73,1.29-.95,1.57,.09,.1,.35-.26,.95-1.57Z"></path><path class="cls-4" d="M402.87,190.5c.11,.94,.25,1.87,.33,2.81-.1-1.37-.06-1.86-.03-2.55-.11,.07-.23,.62-.3-.26Z"></path><path class="cls-4" d="M400.37,165.68c-.2-.38-.31-.85-.52-1.22l-.17,.19c.63,1.69,1.23,2.82,.68,1.03Z"></path><path class="cls-4" d="M404.2,187.72c.38-.27,.06-2.05-.35-4.02,.02,.12,.04,.23,.05,.35-.67-.49-.1,1.57,.29,3.67Z"></path><path class="cls-4" d="M403.77,183.24c-.11-.61-.22-1.23-.33-1.83-.28-.19,.12,.74,.33,1.83Z"></path><path class="cls-4" d="M403.5,208.36c.17-.94-.48-.63-.28-1.15-.43-1.09,.19,6.36,.28,1.15Z"></path><polygon class="cls-4" points="405.35 185.93 404.93 186.72 405.46 187.8 405.35 185.93"></polygon><path class="cls-4" d="M405.8,201.97c.05-1.08,.14-2.16,.16-3.24-.08,.05-.14-.36-.18-.87,.04,2-.14,4.19,.03,4.11Z"></path><path class="cls-4" d="M405.77,197.86c0-1.04-.03-2.03-.15-2.61,.04,.56,.08,1.77,.15,2.61Z"></path><path class="cls-4" d="M405.96,190.34l-.03,.97c.05,.76,.1,1.53,.11,2.3,.01-1.09-.05-2.17-.08-3.26Z"></path><path class="cls-4" d="M401.44,236.55l-.56,3.51c.1,.39,.39-.54,.58-1.85,.05-.86,.24-2.16-.03-1.66Z"></path><path class="cls-4" d="M404.71,226.22c-.26,.94-.37,.98-.63,1.49l.59,.21,.03-1.7Z"></path><path class="cls-4" d="M403,236.47c.1,.38-.53,5.17,.32,.73-.1-.39,.47-3.92-.32-.73Z"></path><polygon class="cls-4" points="386.23 287.29 386.61 286.48 385.63 286.16 386.23 287.29"></polygon><path class="cls-4" d="M360.21,327.05c3.36-2.73,.37-1.11,3.4-3.57,.26-.45-.32,.09-.93,.59-.63,.49-1.25,.97-.94,.55-1.75,1.92-2.87,2.73-1.53,2.43Z"></path><path class="cls-4" d="M361.74,324.62c.28-.31,.57-.64,.87-1-.51,.55-.74,.82-.87,1Z"></path><path class="cls-4" d="M324.9,87.43c.74,.27,1.46,.59,2.15,.95-.42-.3-.85-.58-1.31-.84-.28-.03-.56-.08-.84-.1Z"></path><path class="cls-4" d="M329.45,88.5l.15,.85c.5,.09,1.01,.2,1.52,.34-.46-.32-1.37-.86-1.67-1.19Z"></path><path class="cls-4" d="M214.25,346.77l-.08,.27c.46-.18,1.03-.57,2.19-1.36-.7,.36-1.43,.68-2.11,1.09Z"></path><polygon class="cls-4" points="250.6 335.93 249.98 336.02 251.24 336.4 250.6 335.93"></polygon><path class="cls-4" d="M279.94,328.41c-1.17,.34-2.5,.91-3.69,1.22,2.53-.84,4.23-.64,3.69-1.22Z"></path></g></g><path class="cls-4" d="M245.58,272.94c3.29,3.04,6.88,5.88,11.48,6.42,4.46,.53,8.74-1.38,12.21-4.03,6.83-5.23,11.48-13.68,13.91-21.8,1.43-4.78,2.06-9.75,1.97-14.74-.04-2.29-4.99-1.67-4.95,.71,.13,7.58-1.7,15.22-5.26,21.92-1.77,3.33-3.92,6.54-6.54,9.27-2.3,2.39-5.27,4.83-8.7,5.18-4.03,.4-7.38-2.77-10.11-5.29-1.61-1.49-6.07,.47-4.02,2.37h0Z"></path><path class="cls-4" d="M224.31,131.98c-6.43,10.78-17.48,18.79-29.67,21.72-3.52,.85-7.12,1.31-10.74,1.31-1.2,0-2.6,.61-2.8,1.94-.18,1.22,.97,2.25,2.14,2.25,14.36,0,28.32-6,38.35-16.26,2.82-2.89,5.25-6.12,7.32-9.58,.65-1.09-.3-2.35-1.35-2.67-1.27-.39-2.59,.18-3.25,1.29h0Z"></path><path class="cls-4" d="M264.72,140.81c5.94-6.64,12.59-14.13,21.79-15.85,8.71-1.63,15.77,4.27,21.01,10.53,1.43,1.71,5.98,.05,4.17-2.11-4.85-5.8-11.04-10.98-18.76-12.06-8.3-1.17-16.43,2.64-22.65,7.86-3.65,3.06-6.83,6.64-9.99,10.18-.82,.91,.19,2.06,1.08,2.36,1.21,.41,2.53,.04,3.36-.89h0Z"></path><path class="cls-1" d="M138.48,214.28c1.96,6.65,5.63,12.64,10.63,17.44,.44,.42,2.75-.23,2.82-.87,.6-5.94,.14-11.9-1.37-17.67-.97,.26-1.93,.52-2.9,.78,2.43,3.5,4.86,6.99,7.29,10.49,.56,.81,1.12,1.61,1.68,2.42,.45,.64,.9,1.42,1.58,1.85,1.15,.72,2.75,.25,3.82-.39,.12-.07,.37-.22,.35-.4-.4-3.55-.79-7.1-1.19-10.64l-2.9,.78c3.71,5.42,7.43,10.85,11.14,16.27,.35,.51,2.76-.07,2.87-.66,.83-4.16,.85-8.36,0-12.52-.94,.29-1.88,.58-2.82,.87,3.94,3.72,7.88,7.44,11.82,11.16,.52,.5,3.12-.6,2.74-.96-3.94-3.72-7.88-7.44-11.82-11.16-.38-.36-2.94,.26-2.82,.87,.83,4.06,.86,8.21,.05,12.27,.96-.22,1.92-.44,2.87-.66-3.71-5.42-7.43-10.85-11.14-16.27-.36-.52-2.97,.12-2.9,.78,.4,3.55,.79,7.1,1.19,10.64l.35-.4-.25,.15c.46-.16,.92-.32,1.38-.48,.51-.11,.04-.13-.15-.32-.26-.25-.51-.47-.73-.76-.49-.65-.94-1.35-1.4-2.02-.89-1.28-1.78-2.55-2.66-3.83-1.82-2.62-3.64-5.24-5.47-7.87-.36-.52-3.05,.18-2.9,.78,1.51,5.77,1.97,11.74,1.37,17.67,.94-.29,1.88-.58,2.82-.87-4.94-4.73-8.54-10.68-10.47-17.25-.17-.59-3.07,.2-2.9,.78h0Z"></path><path class="cls-1" d="M313.63,207.98c-1.56,5.36-3.11,10.73-4.67,16.09-.18,.61,.72,.81,1.12,.81,.67,0,1.32-.29,1.71-.84,4.43-6.19,9.34-12.02,14.67-17.46l-2.65-.2c-.85,4.89-1.71,9.78-2.56,14.67-.23,1.3,2.2,.74,2.65,.2,4.19-4.99,8.1-10.21,11.73-15.62l-2.82,.28c.8,3.88,.53,7.81-.74,11.56-.2,.6,.74,.81,1.12,.81,.68,0,1.31-.3,1.71-.84,3.7-5.02,7.41-10.04,11.11-15.06,.43-.59-.37-1.01-.84-1.06-.73-.08-1.47,.27-1.9,.85-3.7,5.02-7.41,10.04-11.11,15.06,.94-.01,1.89-.02,2.83-.03,1.32-3.9,1.55-8.03,.72-12.05-.25-1.22-2.41-.33-2.82,.28-3.52,5.25-7.31,10.3-11.37,15.15l2.65,.2c.85-4.89,1.71-9.78,2.56-14.67,.23-1.34-2.19-.67-2.65-.2-5.47,5.58-10.48,11.58-15.03,17.94,.94-.01,1.89-.02,2.83-.03,1.56-5.36,3.11-10.73,4.67-16.09,.35-1.22-2.59-.85-2.92,.28h0Z"></path><g><path class="cls-4" d="M221.55,209.34c-8.52-.89-17.02-3.54-23.78-8.79-6.76-5.25-11.59-13.33-11.75-21.89-.03-1.72,.21-3.63,1.52-4.74,1.46-1.24,3.64-1.01,5.48-.51,8.29,2.26,14.92,8.32,21.2,14.18-1.11-9.67,1.92-19.76,8.18-27.22,1.22-1.46,2.92-2.94,4.78-2.54,1.02,.22,1.84,.98,2.5,1.78,3.6,4.32,4.24,10.37,4.06,15.99-.36,10.91-3.32,21.72-8.56,31.3"></path><path class="cls-4" d="M220.53,207.15c-10.63-1.15-22.07-5.05-28.64-14.01-2.84-3.87-4.6-8.74-4.4-13.58,.05-1.19,.3-2.5,1.18-3.36,.96-.93,2.3-1.09,3.58-.95,2.65,.29,5.27,1.45,7.6,2.68,5.55,2.92,10.19,7.24,14.75,11.49,.34,.32,1.17,.62,1.09-.18-.58-5.3,.02-10.63,1.78-15.66,.85-2.42,1.95-4.76,3.28-6.95,1.28-2.1,2.81-4.57,4.91-5.95,5.09-3.34,6.43,6.31,6.6,9.33,.31,5.51-.36,11.15-1.56,16.53-1.43,6.43-3.78,12.63-6.92,18.41-.63,1.16,2.27,4.96,2.82,3.93,3.14-5.79,5.49-11.98,6.92-18.41,1.34-6,2.15-12.41,1.55-18.56-.28-2.93-.92-5.8-2.12-8.5s-3.07-6.02-5.76-7.38c-2.85-1.45-5.2,1.09-6.82,3.15-1.81,2.3-3.33,4.8-4.53,7.47-2.72,6.01-3.79,12.76-3.08,19.31l1.09-.18c-4.66-4.34-9.43-8.75-15.07-11.8-3.87-2.09-12.84-6.2-14.06,.86-.49,2.84,.04,5.97,.79,8.72,.8,2.95,2.01,5.77,3.56,8.41,3.21,5.47,7.78,10.04,13.24,13.27,6.15,3.64,13.2,5.55,20.27,6.32,.92,.1,.17-1.72,.02-2.04-.33-.72-1.13-2.25-2.07-2.35h0Z"></path></g><g><path class="cls-4" d="M272.62,199.96c-7.22-12.48-9.68-27.65-6.78-41.77,.55-2.67,1.72-5.75,4.37-6.36,3.3-.77,5.88,2.81,7.12,5.96,1.92,4.85,3.15,9.97,3.66,15.16,2.44-3.45,5.23-6.66,8.31-9.57,1.89-1.79,3.99-3.51,6.51-4.17,4.8-1.26,10.03,1.94,12.04,6.48,2,4.54,1.21,9.94-1.07,14.34s-5.9,7.96-9.64,11.21c-6.19,5.37-12.92,10.13-20.04,14.19"></path><path class="cls-4" d="M273.1,199.68c-4.77-8.31-7.09-18.03-7.11-27.58,0-4.54,.26-9.52,1.7-13.86,.56-1.7,1.53-3.47,3.31-4.12,1.72-.63,3.68,.15,4.69,1.65,.49,.72,.75,1.61,1.04,2.42,.49,1.37,.93,2.76,1.31,4.17,.79,2.9,1.3,5.88,1.6,8.87,.09,.87,.73,1.86,1.21,2.57,.1,.15,1.17,1.62,1.39,1.31,1.75-2.46,3.66-4.81,5.74-7,1.89-2,3.9-4.08,6.28-5.51,4.01-2.42,9.85-1.72,12.6,2.39-.37-.56,.18,.51,.25,.73,.18,.59,.31,1.19,.39,1.79,.21,1.47,.16,2.96-.07,4.43-.43,2.78-1.49,5.41-2.99,7.78-3.04,4.81-7.52,8.61-11.9,12.15-5.26,4.25-10.86,8.06-16.73,11.41-.69,.4,1.79,4.73,2.53,4.31,5.8-3.32,11.34-7.07,16.55-11.27,4.88-3.93,9.89-8.18,12.94-13.76,2.97-5.42,3.33-11.66,.5-17.21-2.41-4.72-7.05-9.24-12.77-8.5-3.44,.45-6.15,2.98-8.52,5.31-2.69,2.65-5.13,5.54-7.33,8.62,.87,1.29,1.73,2.58,2.6,3.88-.61-5.94-2-12.12-4.61-17.53-1.6-3.32-6.13-10.39-10.56-6.54-1.63,1.42-2.3,3.75-2.71,5.79-.57,2.8-.92,5.64-1.07,8.49-.3,5.72,.21,11.5,1.5,17.08,1.49,6.43,3.97,12.56,7.26,18.28,.17,.3,1.24,2.17,1.75,1.87,.5-.29-.67-2.24-.78-2.44h0Z"></path></g></g><g id="effect"><g><path class="cls-2" d="M113.03,370.64c-5.62,.65-11.42,.62-16.83-1.06s-10.4-5.18-13.04-10.19c-.62-1.17-1.07-2.68-.28-3.74,.59-.79,1.67-1.02,2.65-1.12,3.76-.38,7.61,.26,11.05,1.83-1.4-4.2-2.19-8.59-2.33-13.01-.04-1.2,0-2.49,.69-3.47,1.16-1.65,3.75-1.68,5.44-.58,1.69,1.09,2.7,2.97,3.59,4.77,3.79,7.69,6.9,15.72,9.26,23.97"></path><path class="cls-2" d="M113.18,369.68c-8.02,.9-16.57,.37-23.26-4.62-1.43-1.07-2.73-2.33-3.81-3.76-.91-1.19-2.51-3.22-2.17-4.85,.35-1.65,3.94-1.1,5.13-.99,2.2,.2,4.35,.78,6.37,1.67,.67,.3,2.98,.05,2.58-1.17-1.41-4.3-2.45-9.03-2.33-13.57,.04-1.72,.67-3.35,2.65-2.74,1.74,.53,2.86,2.32,3.67,3.83,4.21,7.82,7.3,16.42,9.76,24.93,.35,1.21,3.24,.42,2.9-.78-2.34-8.09-5.35-15.98-9.06-23.55-1.39-2.84-3.07-5.96-6.52-6.45s-6.24,1.56-6.32,5.03c-.11,4.73,.88,9.6,2.35,14.07l2.58-1.17c-3.71-1.65-7.74-2.41-11.79-2.03-1.57,.15-3.31,.54-4.32,1.87-1.03,1.36-.54,3.09,.17,4.47,3.26,6.34,10.11,10.12,16.91,11.42,4.68,.9,9.47,.82,14.2,.29,.57-.06,1.55-.41,1.62-1.1s-.78-.88-1.3-.82h0Z"></path></g><g><path class="cls-2" d="M72.2,292.9c-5.85-2.19-10.3-7.76-11.14-13.95,2.94,.61,5.69,2.1,7.81,4.23-.18-1.91-.36-3.88,.23-5.7,.59-1.82,2.15-3.48,4.07-3.55,1.84,5.6,1.51,11.88-.9,17.25"></path><path class="cls-2" d="M73.57,292.41c-5.86-2.25-10.16-7.64-11.06-13.85l-2.64,.94c2.91,.64,5.52,2.09,7.64,4.17,.4,.4,2.88-.22,2.82-.87-.17-1.73-.36-3.55,.11-5.26,.18-.64,.45-1.26,.82-1.81,.23-.33,.48-.64,.79-.89,.14-.13,.29-.24,.45-.33,.14-.08,.15-.09,.04,0l-.82-.17c1.8,5.62,1.5,11.72-.87,17.13-.2,.46,.99,.28,1.15,.25,.44-.08,1.49-.28,1.7-.77,2.4-5.47,2.74-11.69,.92-17.38-.08-.26-.64-.19-.82-.17-2.21,.17-4.37,1.19-5.55,3.12-1.29,2.1-1.05,4.74-.83,7.09l2.82-.87c-2.21-2.17-4.96-3.63-7.98-4.29-.45-.1-2.75,.21-2.64,.94,.9,6.27,5.31,11.78,11.22,14.05,.57,.22,1.31,.02,1.86-.18,.1-.04,1.31-.62,.87-.79h0Z"></path></g><path class="cls-4" d="M75.6,299.6c.95,4.18,3.53,8.58,7.33,10.79,3.75,2.18,7.89,.16,10.03-3.22,1-1.58,2.62-4.22,1.56-6.09-.93-1.63-3.07-1.57-4.57-.85-1.62,.78-1.6,3.62-1.55,5.2,.06,2.21,.72,4.41,1.92,6.27,2.6,4.03,7.35,6.04,12.06,5.67,.54-.04,1.63-.19,1.93-.72s-.25-.61-.71-.58c-8.38,.66-14.27-8-11.62-15.68l-.58,.49-.66,.21,.35,.2c.16,.2,.39,.33,.54,.56,.32,.5,.36,1.18,.27,1.75-.16,1.09-.74,2.15-1.26,3.1-.47,.87-1.02,1.73-1.72,2.44-.97,.98-1.73,1-2.98,.36-3.91-2.01-6.49-6.54-7.43-10.69-.16-.73-3.08,0-2.9,.78h0Z"></path><path class="cls-4" d="M124.08,376.05c3.19,2.59,7.31,3.55,11.35,3.04,.44-.06,1.56-.32,1.68-.86,.12-.57-.92-.44-1.19-.41-3.15,.4-6.59-.76-9.12-2.81-.46-.38-1.4-.1-1.89,.09-.22,.09-1.28,.59-.83,.95h0Z"></path><path class="cls-4" d="M353.96,392.17c2.61-3.95,7.11-6.49,11.84-6.63,2.78-.08,5.44,.85,8.09,1.55,2.57,.68,5.18,1.14,7.84,.83,10.47-1.24,17.34-10.97,17.3-21.11-.02-4.5-1.72-9.73-6.46-11.17-.74-.23-1.85,.06-2.22,.8-1.47,2.88-.99,6.28,.82,8.89,2.1,3.05,5.75,4.33,9.34,4.23,8.17-.21,14.06-7.19,16.74-14.32,1.61-4.26,2.22-9.05,.31-13.32-.55-1.22-3.41-.37-2.9,.78,1.89,4.21,1.24,8.91-.48,13.07-1.54,3.72-3.83,7.38-7.18,9.71-3.26,2.27-7.88,2.96-11.27,.56-2.86-2.02-4.25-6.14-2.62-9.33l-2.22,.8c4.04,1.23,5.28,6.22,5.22,9.96-.08,5-1.73,10.09-5.19,13.78-3.29,3.5-8.03,5.33-12.8,4.54-2.67-.44-5.22-1.42-7.87-1.93-2.3-.44-4.62-.43-6.92,0-4.94,.94-9.34,3.85-12.1,8.04-.4,.61,.35,1.08,.86,1.14,.73,.09,1.49-.26,1.89-.87h0Z"></path><g><path class="cls-2" d="M418.01,332.73c-3.31-5.97-5.25-12.71-5.6-19.53-.07-1.27-.07-2.59,.48-3.74s1.79-2.06,3.04-1.83c1.15,.22,1.92,1.28,2.58,2.25,1.34,2.01,2.68,4.02,4.02,6.03,.5-4.55,3.58-8.73,7.78-10.55,.61-.26,1.27-.49,1.93-.39,1.2,.17,2.03,1.31,2.4,2.46,.77,2.36,.19,4.94-.64,7.27-2.67,7.5-7.99,14.02-14.8,18.13"></path><path class="cls-2" d="M419.46,332.34c-2.86-5.22-4.72-10.95-5.38-16.87-.17-1.49-.37-3.08-.18-4.57,.09-.69,.26-1.44,.71-1.99s.79-.43,1.32,.02c1.02,.87,1.7,2.24,2.44,3.34,.94,1.41,1.88,2.81,2.81,4.22,.5,.75,2.69,.1,2.79-.75,.44-3.54,2.33-6.89,5.34-8.88,.61-.4,1.68-1.22,2.45-.96,1.01,.34,1.46,1.84,1.64,2.75,.41,2.09-.17,4.25-.86,6.22-2.56,7.25-7.71,13.49-14.26,17.49-.47,.29-.77,.82-.24,1.19s1.57,.04,2.06-.26c6.31-3.86,11.4-9.58,14.38-16.36,1.42-3.22,3.05-7.55,1.14-10.9-2-3.52-6.41-1.43-8.86,.41-3.1,2.32-5.22,5.79-5.7,9.64,.93-.25,1.86-.5,2.79-.75-1.16-1.74-2.32-3.48-3.48-5.22-.82-1.23-1.63-2.65-3.11-3.16-3.18-1.1-6.11,1.67-6.32,4.71-.25,3.53,.48,7.32,1.35,10.72,.96,3.75,2.4,7.35,4.26,10.74,.56,1.02,3.37,.08,2.9-.78h0Z"></path></g></g></svg>